<?xml version="1.0" encoding="utf-8"?>
<!-- Generator: Adobe Illustrator 25.0.0, SVG Export Plug-In . SVG Version: 6.00 Build 0)  -->
<svg version="1.1" id="Layer_1" focusable="false" xmlns="http://www.w3.org/2000/svg" xmlns:xlink="http://www.w3.org/1999/xlink"
	 x="0px" y="0px" viewBox="0 0 640 512" style="enable-background:new 0 0 640 512;" xml:space="preserve">
<style type="text/css">
	.st0{fill:#F9F9F9;}
	.st1{fill:#FFFFFF;}
	.st2{fill:none;stroke:#FFFFFF;stroke-width:6;stroke-miterlimit:10;}
	.st3{fill:#848080;}
</style>
<circle class="st0" cx="281" cy="186" r="92"/>
<path class="st1" d="M341.5,301h-11.7c-15.6,7.5-33,11.7-51.3,11.7c-18.3,0-35.6-4.2-51.3-11.7h-11.7c-52.2,0-94.5,44.1-94.5,98.4
	l0,30.5c0,19.4,15.1,35.1,33.8,35.1l247.5,0c18.6,0,33.8-15.7,33.8-35.1v-30.5C436,345.1,393.7,301,341.5,301z"/>
<circle class="st2" cx="274.5" cy="255.5" r="248.5"/>
<circle class="st1" cx="528.2" cy="244.5" r="100.8"/>
<path class="st3" d="M597.1,221.5h-46v-46c0-6.3-5.2-11.5-11.5-11.5h-23c-6.3,0-11.5,5.2-11.5,11.5v46h-46
	c-6.3,0-11.5,5.2-11.5,11.5v23c0,6.3,5.2,11.5,11.5,11.5h46v46c0,6.3,5.2,11.5,11.5,11.5h23c6.3,0,11.5-5.2,11.5-11.5v-46h46
	c6.3,0,11.5-5.2,11.5-11.5v-23C608.6,226.7,603.4,221.5,597.1,221.5z"/>
</svg>
